<svg width="93" height="91" viewBox="0 0 93 91" fill="none" xmlns="http://www.w3.org/2000/svg">
<path d="M35.7808 35.7269C35.7808 35.6517 35.8543 35.6517 35.8543 35.5764C36.2219 34.1474 37.3246 33.2449 38.7214 33.2449C42.0297 33.2449 45.4115 33.2449 48.7197 33.2449C50.3371 33.2449 52.028 33.2449 53.6454 33.2449C55.1157 33.2449 56.292 34.2226 56.5125 35.7269C56.5861 35.9525 56.5861 36.1781 56.5861 36.4038C56.5861 38.5097 56.5861 40.5404 56.5861 42.6464C56.5861 42.7968 56.5861 42.872 56.5861 43.0976C56.6596 43.0224 56.7331 42.9472 56.8066 42.9472C60.2619 39.9387 63.7172 36.9303 67.1725 33.9218C67.6871 33.4705 68.2017 33.1697 68.9369 33.3201C70.4072 33.6209 70.9954 35.2756 70.0397 36.4038C69.231 37.3815 68.4223 38.3593 67.6136 39.337C64.0848 43.5489 60.556 47.836 57.0272 52.0478C56.6596 52.4239 56.5861 52.8752 56.5861 53.4017C56.5861 57.5383 56.5861 61.5997 56.5861 65.7364C56.5861 67.0902 55.8509 68.2184 54.6746 68.6697C54.5276 68.7449 54.307 68.8201 54.16 68.8201C48.8668 68.8201 43.5736 68.8201 38.2803 68.8201C38.2068 68.8201 38.1333 68.7449 38.0598 68.7449C36.957 68.444 36.2954 67.7671 35.9278 66.7142C35.8543 66.5637 35.8543 66.4885 35.7808 66.3381C35.7808 56.0341 35.7808 45.8805 35.7808 35.7269ZM36.957 56.7862C37.0306 56.7862 37.0306 56.8614 37.0306 56.8614C39.1625 56.8614 41.2945 56.8614 43.4265 56.8614C43.5 56.8614 43.6471 56.7862 43.6471 56.6358C43.7941 56.3349 43.8676 56.0341 44.0147 55.7332C44.2352 55.1315 44.3822 54.5298 44.6763 54.0033C45.5585 52.2735 46.9553 51.1453 48.9403 51.2957C49.1608 51.2957 49.1608 51.2205 49.2344 51.0701C49.6755 50.318 50.1166 49.5658 50.5577 48.8137C50.9988 48.1368 51.4399 47.5351 52.1015 47.0086C53.1308 46.1061 54.16 45.2036 55.1892 44.301C55.3363 44.1506 55.4098 44.0754 55.4098 43.8497C55.4098 41.2925 55.4098 38.8106 55.4098 36.2533C55.4098 35.2004 54.6746 34.4483 53.6454 34.4483C53.1308 34.4483 52.6161 34.4483 52.175 34.4483C51.7339 34.4483 51.2928 34.4483 50.7782 34.4483C50.7782 34.5987 50.7782 34.7491 50.7782 34.8995C50.7782 36.1029 50.043 36.7798 48.8668 36.7798C47.0289 36.7798 45.1909 36.7798 43.353 36.7798C42.2503 36.7798 41.5151 36.0277 41.5151 34.8995C41.5151 34.7491 41.5151 34.5987 41.5151 34.4483C41.4416 34.4483 41.4416 34.4483 41.3681 34.4483C40.4858 34.4483 39.6772 34.4483 38.795 34.4483C37.5452 34.4483 36.81 35.1252 36.81 36.479C36.81 43.1728 36.81 49.8667 36.81 56.4853C36.957 56.5606 36.957 56.711 36.957 56.7862ZM55.4833 58.0648C54.3805 58.0648 53.2778 58.0648 52.2486 58.0648C52.175 58.0648 52.028 58.14 51.9545 58.2152C51.4399 58.8169 50.8517 59.3434 50.1901 59.7947C47.8375 61.3741 45.1909 61.5997 42.4708 60.9981C42.2503 60.9228 41.9562 60.6972 41.8092 60.4716C41.4416 60.0203 41.5886 59.3434 42.0297 58.8921C42.3238 58.6665 42.5443 58.3656 42.8384 58.14V58.0648C40.9269 58.0648 38.942 58.0648 37.0306 58.0648C37.0306 58.2152 37.0306 58.2904 37.0306 58.4408C37.0306 60.7724 37.0306 63.1792 37.0306 65.5108C37.0306 66.7894 37.6922 67.5415 38.942 67.5415C43.7941 67.5415 48.7197 67.5415 53.5719 67.5415C54.6746 67.5415 55.5568 66.7142 55.4833 65.586C55.4098 63.2544 55.4833 60.8476 55.4833 58.5161C55.4833 58.3656 55.4833 58.2152 55.4833 58.0648ZM55.9244 51.5214C56.0714 51.2957 56.292 51.1453 56.439 50.9197C59.6003 47.0839 62.835 43.2481 65.9962 39.4122C67.0255 38.2089 68.0547 36.9303 69.0104 35.7269C69.231 35.5012 69.378 35.2756 69.3045 34.9747C69.1575 34.4483 68.5693 34.1474 67.9812 34.6739C62.982 39.0362 57.9829 43.3985 52.9102 47.836C52.7632 47.9112 52.6897 48.0616 52.5426 48.1368C53.7189 49.265 54.8216 50.3932 55.9244 51.5214ZM50.1901 58.3656C50.4106 58.14 50.7047 57.9144 50.9253 57.6887C52.028 56.4853 52.028 54.5298 50.9253 53.4017C49.749 52.1983 47.9111 52.1983 46.6613 53.3264C46.1467 53.8529 45.7791 54.4546 45.485 55.1315C45.485 55.2067 45.4115 55.2819 45.4115 55.4324C45.9996 55.5828 46.5142 55.7332 47.0289 55.8084C48.3522 56.0341 49.3814 56.7862 50.043 58.0648C50.043 58.14 50.1166 58.2152 50.1901 58.3656ZM49.1608 59.0425C48.8668 58.0648 48.2051 57.3127 47.1759 57.087C46.4407 56.8614 45.7791 56.7862 45.0439 56.5606C44.6028 57.8392 43.8676 58.8921 42.8384 59.8699C45.0439 60.3211 47.1024 60.0955 49.1608 59.0425ZM51.8075 49.1146C51.3664 49.9419 50.8517 50.694 50.3371 51.5966C51.3664 52.0478 52.1015 52.8 52.5426 53.8529C53.3513 53.3264 54.16 52.8752 54.9687 52.3487C53.8659 51.2957 52.8367 50.1675 51.8075 49.1146ZM49.6755 34.3731C47.3964 34.3731 45.0439 34.3731 42.7649 34.3731C42.7649 34.4483 42.7649 34.5235 42.7649 34.5987C42.7649 35.3508 42.9119 35.5012 43.6471 35.5012C45.338 35.5012 47.0289 35.5012 48.7197 35.5012C49.6019 35.5764 49.749 35.426 49.6755 34.3731ZM55.4098 53.4769C54.7481 53.9281 54.0865 54.3042 53.3513 54.6803C52.9837 54.9059 52.6897 55.1315 52.7632 55.658C52.7632 55.7332 52.7632 55.8836 52.7632 56.0341C52.6897 56.3349 52.6897 56.6358 52.6161 56.9366C53.5719 56.9366 54.4541 56.9366 55.4098 56.9366C55.4098 55.7332 55.4098 54.605 55.4098 53.4769Z" fill="#F4957F"/>
<path d="M46.2202 66.3382C44.8969 66.3382 43.6471 66.3382 42.3238 66.3382C42.1768 66.3382 42.0297 66.3382 41.9562 66.2629C41.7357 66.1877 41.5886 65.8869 41.5886 65.6612C41.5886 65.3604 41.8092 65.21 42.1032 65.1348C42.1768 65.1348 42.3238 65.1348 42.3973 65.1348C44.9704 65.1348 47.47 65.1348 50.0431 65.1348C50.5577 65.1348 50.8518 65.3604 50.8518 65.7365C50.8518 66.1125 50.5577 66.3382 50.0431 66.3382C48.7933 66.3382 47.47 66.3382 46.2202 66.3382Z" fill="#F4957F"/>
<path d="M68.7168 90.857H24.386C20.0485 90.857 16.2257 87.999 14.8288 83.7871L1.15469 40.6155C-0.168613 36.4037 1.30173 31.7405 4.83054 29.1833L40.6333 2.4831C44.1621 -0.149315 48.8672 -0.149315 52.396 2.4831L88.2723 29.1081C91.8011 31.7405 93.2714 36.3284 91.9481 40.5403L78.274 83.7119C76.8771 87.999 73.0543 90.857 68.7168 90.857ZM46.5146 2.78395C44.8973 2.78395 43.2799 3.31043 41.8831 4.28819L6.08033 30.9884C3.3602 33.0191 2.18393 36.6293 3.21317 39.9386L16.8873 83.1102C17.9166 86.4195 20.9308 88.6007 24.3125 88.6007H68.6432C72.025 88.6007 75.0392 86.3443 76.0685 83.1102L89.7426 39.9386C90.7719 36.6293 89.6691 33.0191 86.8755 30.9884L51.1462 4.28819C49.7494 3.31043 48.132 2.78395 46.5146 2.78395Z" fill="#F4957F"/>
</svg>
