<svg width="93" height="92" viewBox="0 0 93 92" fill="none" xmlns="http://www.w3.org/2000/svg">
<g clip-path="url(#clip0_19_808)">
<g clip-path="url(#clip1_19_808)">
<path d="M57.3878 30.0317C57.6818 30.0317 58.0494 30.0317 58.3435 30.0317C58.417 30.0317 58.417 30.107 58.4905 30.107C60.1814 30.483 61.2842 31.9872 61.0636 33.7171C60.9901 34.1684 60.8431 34.6197 60.696 35.0709C60.9901 35.0709 61.3577 35.0709 61.6517 35.1461C63.1221 35.447 64.0043 36.7256 64.0043 38.3803C64.0043 44.7733 64.0043 51.1663 64.0043 57.5593C64.0043 57.8601 64.0043 58.161 63.9308 58.4618C63.5632 59.9661 62.3869 60.8686 60.8431 60.8686C57.1672 60.8686 53.4914 60.8686 49.8155 60.8686C49.6685 60.8686 49.5215 60.8686 49.3744 60.8686C49.6685 62.072 49.9626 63.2754 50.2566 64.4788C50.2566 64.554 50.4772 64.6292 50.5507 64.6292C51.1388 64.6292 51.727 64.6292 52.3151 64.6292C53.4179 64.7044 54.2265 65.4565 54.4471 66.5095C54.5206 66.8103 54.5206 67.036 54.5206 67.3368C55.2558 67.3368 55.9909 67.3368 56.7261 67.3368C57.0937 67.3368 57.3878 67.4872 57.5348 67.8633C57.6818 68.2394 57.5348 68.6154 57.0202 68.8411C50.2566 68.8411 43.5666 68.8411 36.803 68.8411C36.2884 68.6906 36.1414 68.465 36.2884 68.0137C36.3619 67.6377 36.656 67.4872 37.1706 67.4872C37.4647 67.4872 37.6852 67.4872 37.9793 67.4872C38.4204 67.4872 38.8615 67.4872 39.3026 67.4872C39.3026 67.3368 39.3026 67.2616 39.3026 67.1864C39.3026 65.6069 40.2583 64.7044 41.8022 64.7044C42.2433 64.7044 42.6844 64.7044 43.1255 64.7044C43.4195 64.7044 43.4931 64.6292 43.5666 64.3283C43.7871 63.3506 44.0077 62.2976 44.2282 61.3199C44.2282 61.1694 44.3017 61.0942 44.3017 60.8686C44.0812 60.8686 43.9342 60.8686 43.7871 60.8686C40.1113 60.8686 36.509 60.8686 32.8331 60.8686C30.9217 60.8686 29.6719 59.59 29.6719 57.6345C29.6719 51.2415 29.6719 44.7733 29.6719 38.3803C29.6719 38.0042 29.7454 37.5529 29.8189 37.2521C30.26 35.8983 31.3628 35.1461 32.8331 35.1461C39.3761 35.1461 45.9191 35.1461 52.3886 35.1461C52.6827 35.1461 52.8297 35.0709 52.9767 34.8453C53.6384 33.7923 54.3736 32.7394 55.0352 31.6864C55.5498 30.8591 56.285 30.3326 57.1672 30.1822C57.3142 30.107 57.3142 30.107 57.3878 30.0317ZM62.6075 52.7457C62.6075 52.5953 62.6075 52.4449 62.6075 52.2944C62.6075 47.7065 62.6075 43.1186 62.6075 38.5307C62.6075 38.3803 62.6075 38.2298 62.6075 38.0794C62.534 37.2521 61.9458 36.7256 61.1371 36.7256C60.696 36.7256 60.2549 36.7256 59.8138 36.7256C59.5198 36.7256 59.3727 36.8008 59.2257 37.0264C57.2407 39.5836 55.1823 42.0656 53.1238 44.6228C52.8297 44.9989 52.5356 45.375 52.8297 45.9014C52.9032 46.0519 52.9032 46.2775 52.9032 46.5031C53.0503 48.5339 51.6534 50.1885 49.742 50.4142C49.0804 50.4894 48.4187 50.4142 47.757 50.4142C46.8013 50.4142 45.8456 50.5646 45.1104 51.3167C44.6693 51.6928 44.0812 51.5423 43.9342 50.9406C43.5666 49.5116 43.346 48.1578 43.4931 46.6536C43.7136 44.0211 45.5515 42.2161 48.1981 42.0656C48.4187 42.0656 48.5657 41.9904 48.7128 41.7648C49.742 40.1853 50.6977 38.6811 51.727 37.1017C51.8005 37.0264 51.874 36.9512 51.9475 36.7256C51.727 36.7256 51.6534 36.7256 51.5064 36.7256C45.331 36.7256 39.2291 36.7256 33.0537 36.7256C31.8774 36.7256 31.2892 37.3273 31.2892 38.5307C31.2892 43.1938 31.2892 47.7817 31.2892 52.4449C31.2892 52.5953 31.2892 52.7457 31.2892 52.8961C31.9509 52.8961 32.6126 52.8961 33.2742 52.8961C33.7888 52.8961 34.0829 53.197 34.0829 53.6483C34.0829 54.0995 33.7888 54.4004 33.2007 54.4004C32.6126 54.4004 32.0979 54.4004 31.5098 54.4004C31.2157 54.4004 31.1422 54.4756 31.1422 54.7764C31.1422 55.7542 31.1422 56.8072 31.1422 57.7849C31.1422 58.9131 31.7303 59.5148 32.8331 59.5148C42.1698 59.5148 51.5064 59.5148 60.8431 59.5148C61.9458 59.5148 62.5339 58.9131 62.5339 57.7849C62.5339 56.8072 62.5339 55.7542 62.5339 54.7764C62.5339 54.626 62.5339 54.5508 62.5339 54.4004C62.3134 54.4004 62.1664 54.4004 62.0193 54.4004C54.5206 54.4004 47.0219 54.4004 39.5967 54.4004C39.4496 54.4004 39.3026 54.4004 39.082 54.4004C38.7145 54.3252 38.4204 54.0243 38.4204 53.6483C38.4204 53.2722 38.6409 52.9714 39.0085 52.8961C39.1556 52.8209 39.3761 52.8209 39.5967 52.8209C47.0954 52.8209 54.5941 52.8209 62.0928 52.8209C62.2399 52.7457 62.3869 52.7457 62.6075 52.7457ZM54.2265 40.787C54.3736 40.6366 54.5206 40.4862 54.5941 40.3358C56.0645 38.4555 57.6083 36.5752 59.0787 34.6949C59.5198 34.1684 59.6668 33.5667 59.5198 32.8898C59.2992 32.1377 58.7846 31.7616 58.0494 31.6112C57.3142 31.536 56.7261 31.8368 56.285 32.4385C54.8882 34.6197 53.4914 36.7256 52.021 38.9067C52.021 38.982 51.9475 38.9819 51.9475 39.0572C52.7562 39.6589 53.4914 40.1853 54.2265 40.787ZM45.0369 49.3612C46.0662 48.8347 47.1689 48.7595 48.2717 48.8347C48.6392 48.8347 48.9333 48.9099 49.3009 48.8347C50.3301 48.7595 51.1388 48.233 51.2859 47.2553C51.3594 46.804 51.2859 46.2775 51.2123 45.8262C51.2123 45.6758 51.0653 45.4502 50.9183 45.375C50.1831 44.7733 49.4479 44.2468 48.6392 43.6451C48.5657 43.5699 48.4187 43.4947 48.3452 43.4947C46.8748 43.3442 45.4045 44.322 45.0369 45.751C44.7429 46.9544 44.8164 48.0826 45.0369 49.3612ZM52.9767 67.4872C53.0503 66.5095 52.8297 66.2086 51.874 66.2086C48.4922 66.2086 45.1104 66.2086 41.8022 66.2086C40.9935 66.2086 40.6994 66.5847 40.8465 67.4872C44.8899 67.4872 48.9333 67.4872 52.9767 67.4872ZM48.7863 64.7044C48.4922 63.4258 48.1981 62.2224 47.9041 60.9438C47.2424 60.9438 46.5073 60.9438 45.8456 60.9438C45.5515 62.2224 45.2575 63.4258 44.9634 64.7044C46.2867 64.7044 47.5365 64.7044 48.7863 64.7044ZM51.2123 40.3358C50.6977 41.0879 50.2566 41.7648 49.8155 42.5169C50.4772 42.9682 51.0653 43.4947 51.727 43.9459C52.2416 43.269 52.8297 42.5921 53.3443 41.9152C52.6092 41.3887 51.9475 40.8622 51.2123 40.3358Z" fill="#F4957F"/>
<path d="M36.2884 54.2498C35.8473 54.2498 35.5532 53.949 35.5532 53.4977C35.5532 53.1217 35.8473 52.7456 36.2884 52.7456C36.7295 52.7456 37.0236 53.1217 37.0236 53.4977C37.0236 53.949 36.656 54.2498 36.2884 54.2498Z" fill="#F4957F"/>
<path d="M88.6322 29.6557L52.7559 2.95551C49.2271 0.323097 44.522 0.323097 40.9932 2.95551L5.11692 29.6557C1.5881 32.2881 0.117764 36.8761 1.44107 41.0879L15.1152 84.2595C16.4385 88.4714 20.2614 91.3295 24.6724 91.3295H69.0032C73.3407 91.3295 77.1635 88.4714 78.5603 84.2595L92.2345 41.0879C93.6313 36.8761 92.161 32.2129 88.6322 29.6557ZM90.176 40.411L76.5019 83.5826C75.4726 86.892 72.4584 89.0731 69.0767 89.0731H24.7459C21.3642 89.0731 18.35 86.8167 17.3207 83.5826L3.57306 40.411C2.54382 37.1017 3.72009 33.4915 6.44022 31.4608L42.3165 4.7606C43.7133 3.70763 45.3307 3.25636 46.9481 3.25636C48.5654 3.25636 50.1828 3.78284 51.5796 4.7606L87.4559 31.3856C90.1025 33.4915 91.2788 37.1017 90.176 40.411Z" fill="#F4957F"/>
</g>
</g>
<defs>
<clipPath id="clip0_19_808">
<rect width="91.8227" height="90.3294" fill="white" transform="translate(0.898438 0.756348)"/>
</clipPath>
<clipPath id="clip1_19_808">
<rect width="91.8227" height="90.3294" fill="white" transform="translate(1.00024 1)"/>
</clipPath>
</defs>
</svg>
