<svg width="92" height="91" viewBox="0 0 92 91" fill="none" xmlns="http://www.w3.org/2000/svg">
<g clip-path="url(#clip0_19_783)">
<path d="M50.1387 60.019C50.2857 61.448 50.7268 62.7266 51.6825 63.7043C52.1971 64.2308 52.8588 64.6069 53.5205 64.9829C53.9616 65.2086 54.1086 65.4342 54.0351 65.8103C53.9616 66.1863 53.6675 66.3368 53.2999 66.3368C49.0359 66.3368 44.7719 66.3368 40.5079 66.3368C40.1404 66.3368 39.8463 66.2615 39.7728 65.8103C39.6993 65.4342 39.8463 65.2086 40.2874 64.9829C42.3459 64.0804 43.3016 62.4257 43.5957 60.2446C43.5957 60.1694 43.5957 60.0942 43.5957 60.019C43.4486 60.019 43.2281 60.019 43.081 60.019C39.4787 60.019 35.8764 59.9438 32.2741 60.019C30.4361 60.019 29.0393 58.5899 29.0393 56.7096C29.1128 50.091 29.0393 43.4723 29.0393 36.8537C29.0393 34.823 30.2891 33.5444 32.2741 33.5444C41.4637 33.5444 50.7268 33.5444 59.9164 33.5444C60.2105 33.5444 60.5046 33.4692 60.7251 33.2435C61.3868 32.4914 62.1219 31.8145 62.7836 31.0624C63.5923 30.2351 64.695 30.2351 65.5037 31.0624C65.8713 31.4385 66.3124 31.8145 66.68 32.2658C67.4152 33.0931 67.4152 34.1461 66.68 34.9734C66.0919 35.5751 65.5772 36.1768 64.9891 36.7033C64.7685 36.9289 64.695 37.1546 64.695 37.4554C64.695 43.9236 64.695 50.3166 64.695 56.7848C64.695 58.3643 63.7393 59.6429 62.3425 59.9437C62.0484 60.019 61.7543 60.019 61.5338 60.019C57.9315 60.019 54.3291 60.019 50.7268 60.019C50.5063 60.019 50.3592 60.019 50.1387 60.019ZM63.4452 38.3579C63.3717 38.3579 63.3717 38.2827 63.2982 38.2827C63.2247 38.4332 63.1512 38.5084 63.0777 38.6588C59.6959 42.1185 56.2406 45.6535 52.8588 49.1132C52.7118 49.2637 52.4912 49.4893 52.1971 49.4893C51.0209 49.7149 49.9181 49.9406 48.7419 50.1662C48.1537 50.2414 47.8596 49.9406 47.9332 49.3389C48.1537 48.2107 48.3007 47.1577 48.5213 46.0296C48.5948 45.7287 48.7418 45.4279 48.9624 45.2022C52.1971 41.8929 55.4319 38.5084 58.7402 35.199C58.8137 35.1238 58.9607 34.9734 59.1077 34.823C58.8872 34.823 58.7402 34.823 58.5931 34.823C49.8446 34.823 41.0226 34.823 32.2741 34.823C30.8772 34.823 30.2156 35.4999 30.2156 36.9289C30.2156 43.5476 30.2156 50.091 30.2156 56.7096C30.2156 58.1387 30.8772 58.8156 32.2741 58.8156C41.9783 58.8156 51.6825 58.8156 61.3133 58.8156C62.7101 58.8156 63.3717 58.1387 63.3717 56.7096C63.3717 50.7679 63.3717 44.8262 63.3717 38.8844C63.4452 38.6588 63.4452 38.5084 63.4452 38.3579ZM52.2707 47.9851C52.3442 47.8346 52.4177 47.7594 52.5647 47.609C54.8438 45.2774 57.1963 42.8707 59.4753 40.5391C61.5338 38.4332 63.6658 36.252 65.7243 34.1461C66.1654 33.6948 66.1654 33.4692 65.7243 33.0179C65.4302 32.7171 65.1361 32.4162 64.8421 32.1154C64.3274 31.5889 64.1069 31.5137 63.5188 32.1154C59.1077 36.6281 54.7702 41.0656 50.3592 45.5783C50.2857 45.6535 50.2122 45.8039 50.1387 45.8791C50.8738 46.556 51.5355 47.2329 52.2707 47.9851ZM48.9624 60.019C47.6391 60.019 46.3158 60.019 45.066 60.019C44.7719 60.019 44.7719 60.1694 44.7719 60.395C44.5514 62.1249 43.9632 63.6291 42.7135 64.8325C42.6399 64.9077 42.6399 64.9829 42.5664 65.0582C45.4336 65.0582 48.3007 65.0582 51.2414 65.0582C49.7711 63.6291 49.1094 61.9745 48.9624 60.019ZM49.6241 47.2329C49.5505 47.6842 49.477 48.2107 49.33 48.8124C49.9181 48.7372 50.3592 48.5868 50.8738 48.5115C50.4327 48.0603 49.9916 47.6842 49.6241 47.2329Z" fill="#F4957F"/>
<path d="M38.4494 47.4585C38.3759 46.556 38.3759 45.6534 38.1554 44.8261C37.6408 42.7202 35.8764 41.2911 33.7444 41.2159C33.2297 41.2159 32.7151 41.2159 32.2005 41.2159C31.7594 41.2159 31.4653 40.9903 31.4653 40.6142C31.4653 40.2382 31.7594 40.0125 32.2005 40.0125C33.4503 40.0125 34.7001 39.9373 35.8763 40.539C38.2289 41.6672 39.4787 43.5475 39.5522 46.1799C39.6257 47.1577 39.5522 48.2106 39.5522 49.1884C39.5522 50.843 40.655 52.0464 42.2723 52.0464C42.7134 52.0464 43.228 52.0464 43.6691 51.9712C44.7719 51.6704 45.4336 50.843 45.6541 49.7149C45.6541 49.5644 45.6541 49.4892 45.7276 49.3388C45.8011 48.9627 46.0217 48.6619 46.3893 48.7371C46.7569 48.7371 46.9774 49.038 46.9774 49.414C46.9774 50.2413 46.7569 50.9935 46.2422 51.6704C45.5806 52.6481 44.6984 53.1746 43.5221 53.325C42.2723 53.4755 41.0961 53.4002 39.9933 52.6481C38.817 51.8208 38.3024 50.6926 38.3024 49.2636C38.3759 48.5867 38.3759 48.0602 38.4494 47.4585C38.3759 47.4585 38.3759 47.4585 38.4494 47.4585Z" fill="#F4957F"/>
<path d="M68.0766 90.3295H23.7459C19.4084 90.3295 15.5855 87.4714 14.1887 83.2595L0.514556 40.0879C-0.808749 35.8761 0.661589 31.2129 4.1904 28.6557L39.9932 1.95551C43.522 -0.676903 48.2271 -0.676903 51.7559 1.95551L87.6321 28.5805C91.1609 31.2129 92.6313 35.8009 91.308 40.0127L77.6338 83.1843C76.237 87.4714 72.4141 90.3295 68.0766 90.3295ZM45.8745 2.25636C44.2571 2.25636 42.6398 2.78284 41.2429 3.7606L5.44019 30.4608C2.72006 32.4915 1.54379 36.1017 2.57303 39.411L16.2472 82.5826C17.2764 85.892 20.2906 88.0731 23.6724 88.0731H68.0031C71.3849 88.0731 74.3991 85.8167 75.4283 82.5826L89.1025 39.411C90.1317 36.1017 89.029 32.4915 86.2353 30.4608L50.5061 3.7606C49.1093 2.78284 47.4919 2.25636 45.8745 2.25636Z" fill="#F4957F"/>
</g>
<defs>
<clipPath id="clip0_19_783">
<rect width="91.8227" height="90.3294" fill="white"/>
</clipPath>
</defs>
</svg>
