<svg width="92" height="91" viewBox="0 0 92 91" fill="none" xmlns="http://www.w3.org/2000/svg">
<path d="M55.9858 41.987C55.9858 41.6861 55.7652 41.3853 55.5447 41.2348C55.2506 41.0844 54.883 41.2348 54.6625 41.3853C54.5154 41.5357 54.4419 41.7613 54.4419 42.1374C54.4419 43.6416 54.4419 45.1459 54.4419 46.6501C54.4419 47.1766 54.2213 47.5526 53.7802 47.7783C53.3391 48.0039 52.8245 48.0039 52.4569 47.7031C52.2364 47.5526 51.8688 47.2518 51.8688 46.5749C51.8688 45.4467 51.8688 44.3185 51.8688 43.1904V42.0622C51.8688 41.6109 51.7218 41.3853 51.5747 41.3101C51.4277 41.1596 51.2072 41.0844 51.0601 41.1596C50.7661 41.1596 50.325 41.3101 50.325 42.1374C50.325 42.8143 50.325 43.4912 50.325 44.1681C50.325 44.9954 50.325 45.898 50.325 46.7253C50.325 48.3048 51.5747 49.5834 53.1186 49.5834C54.6624 49.5834 55.9122 48.38 55.9122 46.8005C55.9122 46.274 55.9122 45.7476 55.9122 45.2211V44.5442V43.9425C55.9858 43.2656 55.9858 42.5887 55.9858 41.987Z" fill="#F4957F"/>
<path d="M58.6322 41.1597C58.5587 40.934 58.3382 40.7084 58.0441 40.6332C57.8236 40.558 57.5295 40.6332 57.3824 40.8588C57.1619 41.0845 57.0884 41.3853 57.0884 41.6109C57.0884 42.5135 57.0884 43.4912 57.0884 44.3938V49.1321C57.0884 49.433 57.1619 49.6586 57.3089 49.809C57.3824 49.8842 57.603 50.0347 57.8235 50.0347C58.1911 50.0347 58.5587 49.809 58.5587 49.1321V48.9817V41.7614C58.7058 41.5357 58.7058 41.3101 58.6322 41.1597Z" fill="#F4957F"/>
<path d="M49.9574 57.7063C49.2222 57.7063 48.5605 58.308 48.5605 59.1353C48.5605 59.8874 49.2222 60.5644 49.9574 60.5644C50.6925 60.5644 51.3542 59.8874 51.3542 59.1353C51.3542 58.308 50.7661 57.7063 49.9574 57.7063ZM49.9574 59.6618C49.6633 59.6618 49.4427 59.4362 49.4427 59.1353C49.4427 58.8345 49.6633 58.6088 49.9574 58.6088C50.2514 58.6088 50.472 58.8345 50.472 59.1353C50.5455 59.4362 50.2514 59.6618 49.9574 59.6618Z" fill="#F4957F"/>
<path d="M64.7341 37.0984C64.7341 35.2181 63.4844 33.9395 61.72 33.9395C51.207 33.9395 40.6941 33.9395 30.1812 33.9395C28.3433 33.9395 27.167 35.2181 27.167 37.0231C27.167 44.6195 27.167 52.2159 27.167 59.8123C27.167 60.038 27.167 60.2636 27.2405 60.4892C27.5346 61.9935 28.6373 62.896 30.1812 62.896C32.1661 62.896 34.1511 62.896 36.2096 62.896H38.7827V65.4532H38.4151C37.974 65.4532 37.5329 65.4532 37.0918 65.4532C36.2096 65.4532 35.4744 65.9045 35.1068 66.7318C34.7392 67.4087 34.8128 68.2361 35.1803 68.913C35.6214 69.5899 36.2831 69.9659 37.0918 69.9659C41.2087 69.9659 45.3257 69.9659 49.4426 69.9659H53.4125H53.8536C54.0007 69.9659 54.1477 69.9659 54.2947 69.9659C54.5153 69.9659 54.7358 69.9659 54.9564 69.9659C55.618 69.9659 56.2062 69.6651 56.5738 69.1386C56.9414 68.6121 57.0884 67.9352 57.0149 67.3335C56.7943 66.2806 55.9121 65.5284 54.8094 65.5284C54.3683 65.5284 54.0007 65.5284 53.5596 65.5284H53.2655V63.0464H55.8386C57.75 63.0464 59.6615 63.0464 61.4994 63.0464C63.3373 63.0464 64.5871 61.7678 64.5871 59.8875C64.5871 58.7594 64.5871 57.6312 64.5871 56.5782V55.1492V50.3356C64.7342 45.8229 64.7341 41.4606 64.7341 37.0984ZM54.5888 66.8822C54.7358 66.8822 54.9564 66.8822 55.1034 66.9575C55.471 67.0327 55.6916 67.4087 55.618 67.7848C55.618 68.1609 55.324 68.4617 54.8829 68.5369C54.8094 68.5369 54.7358 68.5369 54.7358 68.5369H54.6623H37.0183C36.5036 68.5369 36.1361 68.2361 36.0625 67.7848C36.0625 67.5592 36.1361 67.3335 36.2831 67.1831C36.4301 67.0327 36.6507 66.9575 36.8712 66.9575C37.6064 66.9575 38.3416 66.9575 39.0767 66.9575H47.5312C49.9572 66.8822 52.2363 66.8822 54.5888 66.8822ZM40.1795 65.4532V62.9712H51.8687V65.4532H40.1795ZM63.2638 60.2636C63.2638 60.9405 62.6022 61.467 61.7935 61.467C59.6615 61.467 57.456 61.467 55.324 61.467H52.7509H30.2547C29.0784 61.467 28.4903 60.8653 28.4903 59.6619C28.4903 58.6842 28.4903 57.7064 28.4903 56.7286V56.6534H63.2638C63.2638 56.9543 63.2638 57.2551 63.2638 57.556C63.3373 58.5337 63.3373 59.4363 63.2638 60.2636ZM63.3373 55.2244H28.5638V37.0984C28.5638 35.9702 29.1519 35.3685 30.2547 35.3685H61.6464C62.6757 35.3685 63.2638 35.9702 63.2638 37.0231C63.2638 41.5359 63.2638 46.0486 63.2638 50.6365V55.2244H63.3373Z" fill="#F4957F"/>
<path d="M38.6358 41.987C38.6358 41.7614 38.4152 41.4605 38.2682 41.3853C38.0476 41.2349 37.7536 41.3853 37.6065 41.5357C37.533 41.6862 37.4595 41.8366 37.4595 42.1374C37.4595 43.6417 37.4595 45.1459 37.4595 46.6501C37.4595 47.1766 37.3125 47.5527 36.9449 47.7783C36.4303 48.1544 35.9157 48.2296 35.3275 48.0039C34.7394 47.7783 34.5188 47.327 34.5188 46.6501C34.5188 45.1459 34.5188 43.6417 34.5188 42.1374C34.5188 41.8366 34.4453 41.6109 34.2983 41.5357C34.1512 41.4605 34.0777 41.3853 33.8572 41.3853C33.5631 41.3853 33.269 41.5357 33.269 42.1374C33.269 42.8143 33.269 43.4912 33.269 44.1681C33.269 45.0707 33.269 45.9732 33.269 46.8006C33.269 48.2296 34.4453 49.433 35.9157 49.433C37.386 49.433 38.5623 48.3048 38.5623 46.8006C38.5623 46.2741 38.5623 45.7476 38.5623 45.2963V44.5442V43.8673C38.7093 43.2656 38.7093 42.5887 38.6358 41.987Z" fill="#F4957F"/>
<path d="M43.4877 47.1767C43.1937 46.6502 42.8996 46.0486 42.6055 45.5221C42.532 45.3716 42.532 45.2964 42.6055 45.146C43.0466 44.3187 43.4877 43.4914 43.9288 42.664L44.0759 42.3632C44.2229 42.1375 44.2229 41.9119 44.1494 41.6863C44.0759 41.5358 44.0023 41.4606 43.8553 41.3854C43.4877 41.235 43.1937 41.3854 42.9731 41.7615C42.679 42.3632 42.385 42.9649 42.0174 43.4913L41.7968 43.9426C41.7968 43.9426 41.7968 43.9426 41.7968 44.0178L41.5763 43.6418C41.2087 43.0401 40.9146 42.3632 40.6206 41.7615C40.5471 41.5358 40.3265 41.3854 40.106 41.3102C39.9589 41.235 39.8854 41.3102 39.7384 41.3854C39.6648 41.3854 39.5178 41.5358 39.4443 41.6111C39.3708 41.8367 39.3708 42.1375 39.4443 42.288C39.9589 43.3409 40.4 44.2435 40.8411 44.9956C40.9882 45.2212 40.9882 45.3716 40.8411 45.5973C40.3265 46.4998 39.8854 47.4024 39.4443 48.3049C39.3708 48.5305 39.3708 48.8314 39.4443 49.057C39.5178 49.2827 39.8854 49.3579 40.106 49.2827C40.3265 49.2075 40.5471 48.9066 40.5471 48.8314C40.8411 48.2297 41.2087 47.628 41.5028 46.9511L41.7233 46.575L42.0174 47.1015C42.3115 47.7032 42.6055 48.3049 42.9731 48.8314C43.1201 49.057 43.2672 49.2075 43.4142 49.2827C43.4877 49.2827 43.4877 49.2827 43.5612 49.2827C43.6348 49.2827 43.7818 49.2827 43.8553 49.2075C44.3699 48.9066 44.0759 48.3801 44.0023 48.2297C43.9288 47.9288 43.7083 47.5528 43.4877 47.1767Z" fill="#F4957F"/>
<path d="M49.8836 39.5801C49.8101 39.4297 49.6631 39.3545 49.5161 39.2793C49.2955 39.2041 49.075 39.3545 48.9279 39.5049C48.7809 39.5801 48.7809 39.7306 48.7809 39.8058V39.881C47.5311 43.3407 46.2813 46.8005 45.0315 50.2602V50.3354C44.958 50.4106 44.958 50.5611 44.958 50.7115C45.0315 50.9371 45.1786 51.238 45.3256 51.3132C45.3991 51.3132 45.3991 51.3132 45.4726 51.3132C45.6197 51.3132 45.7667 51.238 45.9137 51.0875L45.9872 51.0123C46.0608 50.9371 46.1343 50.8619 46.1343 50.7115V50.6363L49.9572 40.1066C49.9572 40.0314 50.0307 39.9562 50.0307 39.881L50.1042 39.5801L50.0307 39.5049C49.8836 39.6553 49.8836 39.5801 49.8836 39.5801Z" fill="#F4957F"/>
<path d="M41.8705 57.7063C41.1353 57.7063 40.4736 58.308 40.4736 59.1353C40.4736 59.8874 41.0618 60.5644 41.8705 60.5644C42.6056 60.5644 43.2673 59.8874 43.2673 59.1353C43.2673 58.308 42.6791 57.7063 41.8705 57.7063ZM41.8705 59.6618C41.5764 59.6618 41.2823 59.4362 41.3558 59.0601C41.3558 58.7593 41.5764 58.5336 41.944 58.5336C42.238 58.5336 42.4586 58.7593 42.4586 59.0601C42.4586 59.4362 42.1645 59.6618 41.8705 59.6618Z" fill="#F4957F"/>
<path d="M45.9139 57.7063C45.1787 57.7063 44.5171 58.308 44.5171 59.1353C44.5171 59.8874 45.1052 60.5644 45.9139 60.5644C46.6491 60.5644 47.3107 59.8874 47.3107 59.1353C47.3107 58.308 46.7226 57.7063 45.9139 57.7063ZM45.9139 59.6618C45.6198 59.6618 45.3993 59.361 45.3993 59.0601C45.3993 58.7593 45.6198 58.5336 45.9874 58.5336C46.2815 58.5336 46.502 58.7593 46.502 59.0601C46.502 59.4362 46.208 59.6618 45.9139 59.6618Z" fill="#F4957F"/>
<path d="M87.6715 28.6745L51.7952 1.97431C48.2664 -0.658104 43.5613 -0.658104 40.0325 1.97431L4.15622 28.6745C0.62741 31.3069 -0.842929 35.8949 0.480376 40.1067L14.1545 83.2783C15.4778 87.4902 19.3007 90.3483 23.7117 90.3483H68.0425C72.38 90.3483 76.2028 87.4902 77.5997 83.2783L91.2738 40.1067C92.6706 35.8949 91.2003 31.2317 87.6715 28.6745ZM89.2153 39.4298L75.5412 82.6014C74.5119 85.9108 71.4977 88.0919 68.116 88.0919H23.7852C20.4035 88.0919 17.3893 85.8355 16.36 82.6014L2.61237 39.4298C1.58313 36.1205 2.7594 32.5103 5.47953 30.4796L41.3558 3.7794C42.7526 2.72643 44.37 2.27516 45.9874 2.27516C47.6047 2.27516 49.2221 2.80164 50.6189 3.7794L86.4952 30.4044C89.1418 32.5103 90.3181 36.1205 89.2153 39.4298Z" fill="#F4957F"/>
</svg>
