<svg width="45" height="44" viewBox="0 0 45 44" fill="none" xmlns="http://www.w3.org/2000/svg">
<rect opacity="0.44" x="0.995361" width="44" height="44" fill="url(#paint0_radial_33_91)" fill-opacity="0.8"/>
<path d="M16.4105 15.4738C18.289 13.5162 21.564 13.5042 23.4448 15.465C23.4633 15.4843 23.4803 15.5052 23.4965 15.5262C24.571 14.6584 25.8084 14.0081 27.1863 14.0048C27.8208 14.0024 28.4494 14.131 29.0359 14.3832C29.6224 14.6353 30.1552 15.006 30.6035 15.4738C31.0352 15.9246 31.3936 16.4116 31.6385 17.0209C31.8841 17.6295 32.0015 18.3225 32 19.1645C32 21.5567 30.4189 23.8395 28.7026 25.6635C27.0821 27.3861 25.2213 28.8221 24.0882 29.6954L23.848 29.8806C23.7478 29.9581 23.6264 30 23.5016 30C23.3768 30 23.2553 29.9581 23.1551 29.8806L22.9141 29.6954C21.7818 28.8221 19.9211 27.3861 18.3006 25.6635C16.5858 23.8419 15.007 21.5624 15.0024 19.1733C14.9817 18.4891 15.0961 17.8077 15.3383 17.1714C15.5805 16.5351 15.9454 15.9573 16.4105 15.4738ZM22.6152 16.3126C21.1894 14.8363 18.6574 14.8452 17.2323 16.3303C16.8763 16.7001 16.5976 17.1428 16.4139 17.6305C16.2301 18.1181 16.1454 18.6402 16.1648 19.1637C16.1648 21.0408 17.4393 23.0193 19.1301 24.8159C20.634 26.4145 22.3619 27.762 23.5019 28.641C24.0651 28.2097 24.6211 27.7682 25.1696 27.3168L23.5166 25.7279C23.4605 25.674 23.4152 25.6091 23.3832 25.5369C23.3511 25.4647 23.3331 25.3867 23.33 25.3072C23.3269 25.2278 23.3388 25.1485 23.3652 25.0739C23.3915 24.9992 23.4317 24.9307 23.4834 24.8723C23.5351 24.8138 23.5974 24.7665 23.6667 24.7332C23.7359 24.6998 23.8108 24.681 23.8871 24.6777C23.9633 24.6745 24.0394 24.687 24.111 24.7144C24.1827 24.7419 24.2484 24.7837 24.3045 24.8376L26.0772 26.5425C26.553 26.1239 27.0365 25.6732 27.5061 25.1966L25.8377 23.5932C25.7301 23.4828 25.6679 23.3331 25.6644 23.1758C25.6608 23.0185 25.716 22.8658 25.8184 22.7502C25.9209 22.6346 26.0624 22.565 26.2132 22.5562C26.364 22.5474 26.5121 22.6 26.6263 22.703L28.3164 24.3289C28.7403 23.852 29.1345 23.3474 29.4966 22.8181L29.0448 22.3464L27.7695 21.0166C26.9368 20.1521 25.5782 20.1674 24.7301 21.0512C24.4373 21.3571 24.143 21.6614 23.8557 21.9576C22.9752 22.8623 21.5694 22.8245 20.712 21.923C20.3343 21.5245 19.955 21.1277 19.5727 20.7301C19.4696 20.6224 19.4092 20.4782 19.4035 20.3262C19.3977 20.1743 19.4471 20.0256 19.5418 19.9098C19.7226 19.6877 19.9149 19.4462 20.1173 19.191C20.8341 18.2895 21.6798 17.2254 22.6152 16.3126ZM30.1269 21.762C30.5741 20.8927 30.8375 20.0177 30.8375 19.1637C30.8391 18.44 30.7386 17.9144 30.5672 17.4894C30.3972 17.066 30.1416 16.7054 29.7816 16.3303C29.4417 15.9751 29.0376 15.6938 28.5927 15.5026C28.1477 15.3113 27.6707 15.214 27.1894 15.2163C25.9072 15.2195 24.6791 15.9818 23.505 17.1046C22.5936 17.9772 21.7803 18.9987 21.0426 19.9267L20.7715 20.2672C21.0272 20.5345 21.2836 20.8017 21.5385 21.0706C21.7345 21.281 22.0027 21.4017 22.2841 21.4062C22.5655 21.4108 22.8371 21.2987 23.0393 21.0947C23.3251 20.8009 23.617 20.4991 23.9082 20.1948C25.192 18.8562 27.286 18.8055 28.589 20.1586C29.0216 20.6077 29.4541 21.0601 29.8697 21.4931L30.1269 21.762Z" fill="white"/>
<defs>
<radialGradient id="paint0_radial_33_91" cx="0" cy="0" r="1" gradientUnits="userSpaceOnUse" gradientTransform="translate(22.9954 22) rotate(90) scale(22)">
<stop stop-color="#FFA28B"/>
<stop offset="1" stop-color="#FFA28B" stop-opacity="0"/>
</radialGradient>
</defs>
</svg>
