<svg width="44" height="44" viewBox="0 0 44 44" fill="none" xmlns="http://www.w3.org/2000/svg">
<rect width="44" height="44" fill="url(#paint0_radial_33_90)" fill-opacity="0.8"/>
<path d="M19.0227 14.4318C19.0227 13.6415 19.6285 13 20.375 13H24.625C25.3715 13 25.9773 13.6415 25.9773 14.4318V16.2727H29.6477C30.3942 16.2727 31 16.9142 31 17.7045V29.5682C31 29.9479 30.8575 30.3121 30.6039 30.5806C30.3503 30.8491 30.0064 31 29.6477 31H15.3523C14.9936 31 14.6497 30.8491 14.3961 30.5806C14.1425 30.3121 14 29.9479 14 29.5682V17.7045C14 16.9142 14.6058 16.2727 15.3523 16.2727H19.0227V14.4318ZM15.1591 22.81V29.5682C15.1591 29.6811 15.2456 29.7727 15.3523 29.7727H29.6477C29.699 29.7727 29.7481 29.7512 29.7843 29.7128C29.8206 29.6745 29.8409 29.6224 29.8409 29.5682V22.81C29.248 23.3444 28.4945 23.6374 27.7159 23.6364H17.2841C16.5055 23.6374 15.752 23.3444 15.1591 22.81ZM29.8409 20.1591V17.7045C29.8409 17.6503 29.8206 17.5983 29.7843 17.5599C29.7481 17.5216 29.699 17.5 29.6477 17.5H15.3523C15.301 17.5 15.2519 17.5216 15.2157 17.5599C15.1794 17.5983 15.1591 17.6503 15.1591 17.7045V20.1591C15.1591 20.7558 15.383 21.3281 15.7815 21.7501C16.18 22.172 16.7205 22.4091 17.2841 22.4091H27.7159C28.2795 22.4091 28.82 22.172 29.2185 21.7501C29.617 21.3281 29.8409 20.7558 29.8409 20.1591ZM24.8182 14.4318C24.8182 14.3776 24.7978 14.3255 24.7616 14.2872C24.7254 14.2488 24.6762 14.2273 24.625 14.2273H20.375C20.3238 14.2273 20.2746 14.2488 20.2384 14.2872C20.2022 14.3255 20.1818 14.3776 20.1818 14.4318V16.2727H24.8182V14.4318Z" fill="white"/>
<defs>
<radialGradient id="paint0_radial_33_90" cx="0" cy="0" r="1" gradientUnits="userSpaceOnUse" gradientTransform="translate(22 22) rotate(90) scale(22)">
<stop stop-color="#7EE787"/>
<stop offset="1" stop-color="#7EE787" stop-opacity="0"/>
</radialGradient>
</defs>
</svg>
