<svg width="115" height="100" viewBox="0 0 115 100" fill="none" xmlns="http://www.w3.org/2000/svg">
<path d="M93.2907 3.29594C81.5199 4.18299 63.853 16.7719 70.5578 43.2372C77.2626 69.7025 61.9209 73.949 53.412 72.7641" stroke="white"/>
<circle cx="3.77974" cy="3.77974" r="3.27974" transform="matrix(-1 0 0 1 48.4495 68.4185)" stroke="white"/>
<path d="M35.3921 72.1984C26 71.3393 7.28459 75.497 7.55948 99.0001" stroke="white"/>
<path d="M66.1453 58.7971C66.2599 62.2905 63.8431 68.968 53.2599 67.731" stroke="white"/>
<path d="M12.4658 29.1501C11.4658 29.7275 11.4658 31.1708 12.4658 31.7482L15.5782 33.5451C16.5782 34.1225 17.8282 33.4008 17.8282 32.2461L17.8282 28.6523C17.8282 27.4976 16.5782 26.7759 15.5782 27.3532L12.4658 29.1501Z" stroke="#A693FF" stroke-width="3"/>
<path d="M4.63106 14.4367C3.01726 15.3684 3.01726 17.6977 4.63106 18.6295C6.24486 19.5612 8.26212 18.3965 8.26212 16.5331C8.26212 14.6696 6.24486 13.5049 4.63106 14.4367Z" stroke="white"/>
</svg>
