<svg width="44" height="44" viewBox="0 0 44 44" fill="none" xmlns="http://www.w3.org/2000/svg">
<rect width="44" height="44" fill="url(#paint0_radial_19_922)" fill-opacity="0.8"/>
<path d="M25.5482 15.2198C25.6888 15.0794 25.8794 15.0005 26.0782 15.0005C26.2769 15.0005 26.4676 15.0794 26.6082 15.2198L33.1082 21.7198C33.2486 21.8605 33.3275 22.0511 33.3275 22.2498C33.3275 22.4486 33.2486 22.6392 33.1082 22.7798L26.6082 29.2798C26.5165 29.3786 26.3999 29.4507 26.2707 29.4887C26.1414 29.5268 26.0043 29.5292 25.8738 29.4958C25.7433 29.4625 25.6242 29.3945 25.529 29.2991C25.4339 29.2037 25.3662 29.0844 25.3332 28.9538C25.2998 28.8235 25.3021 28.6865 25.3399 28.5573C25.3778 28.4282 25.4497 28.3116 25.5482 28.2198L31.5182 22.2498L25.5482 16.2798C25.4077 16.1392 25.3289 15.9486 25.3289 15.7498C25.3289 15.5511 25.4077 15.3605 25.5482 15.2198ZM19.1082 15.2198C19.2486 15.3605 19.3275 15.5511 19.3275 15.7498C19.3275 15.9486 19.2486 16.1392 19.1082 16.2798L13.1382 22.2498L19.1082 28.2198C19.2069 28.3115 19.2791 28.4281 19.3171 28.5574C19.3551 28.6866 19.3576 28.8237 19.3242 28.9542C19.2908 29.0848 19.2229 29.2039 19.1275 29.299C19.0321 29.3941 18.9128 29.4618 18.7822 29.4948C18.6518 29.5282 18.5148 29.5259 18.3857 29.4881C18.2565 29.4502 18.1399 29.3783 18.0482 29.2798L11.5482 22.7798C11.4077 22.6392 11.3289 22.4486 11.3289 22.2498C11.3289 22.0511 11.4077 21.8605 11.5482 21.7198L18.0482 15.2198C18.1888 15.0794 18.3794 15.0005 18.5782 15.0005C18.7769 15.0005 18.9676 15.0794 19.1082 15.2198Z" fill="white"/>
<defs>
<radialGradient id="paint0_radial_19_922" cx="0" cy="0" r="1" gradientUnits="userSpaceOnUse" gradientTransform="translate(22 22) rotate(90) scale(22)">
<stop stop-color="#DD7DF7"/>
<stop offset="1" stop-color="#DD7DF7" stop-opacity="0"/>
</radialGradient>
</defs>
</svg>
